<?xml version="1.0" encoding="UTF-8"?>
<svg width="155px" height="69px" viewBox="0 0 155 69" version="1.1" xmlns="http://www.w3.org/2000/svg" xmlns:xlink="http://www.w3.org/1999/xlink">
    <!-- Generator: Sketch 51.2 (57519) - http://www.bohemiancoding.com/sketch -->
    <title>Yerp</title>
    <desc>Created with Sketch.</desc>
    <defs>
        <linearGradient x1="50%" y1="0%" x2="50%" y2="100%" id="linearGradient-1">
            <stop stop-color="#31FE95" stop-opacity="0.704313859" offset="0%"></stop>
            <stop stop-color="#1854FF" stop-opacity="0.884737319" offset="100%"></stop>
        </linearGradient>
        <radialGradient cx="50%" cy="43.9017219%" fx="50%" fy="43.9017219%" r="56.0982781%" gradientTransform="translate(0.500000,0.439017),scale(0.414510,1.000000),rotate(90.000000),translate(-0.500000,-0.439017)" id="radialGradient-2">
            <stop stop-color="#0BB4C1" stop-opacity="0.435716712" offset="0%"></stop>
            <stop stop-color="#000000" stop-opacity="0" offset="100%"></stop>
        </radialGradient>
        <path d="M21.25,39.25 L29.125,22.3125 L42.5,22.3125 L27.46875,50.15625 L27.46875,68 L15.03125,68 L15.03125,50.53125 L0,22.3125 L13.4375,22.3125 L21.25,39.25 Z M60.625,68.625 C54.7291372,68.625 50.151058,67.0573073 46.890625,63.921875 C43.630192,60.7864427 42,56.3229456 42,50.53125 C42,44.5520534 43.5104016,39.9635577 46.53125,36.765625 C49.5520984,33.5676923 53.8645553,31.96875 59.46875,31.96875 C64.80211,31.96875 68.9218605,33.3593611 71.828125,36.140625 C74.7343895,38.9218889 76.1875,42.9270572 76.1875,48.15625 L76.1875,53.59375 L54.34375,53.59375 C54.4270837,55.5729266 55.1510348,57.1249944 56.515625,58.25 C57.8802152,59.3750056 59.7395716,59.9375 62.09375,59.9375 C64.2395941,59.9375 66.2135327,59.734377 68.015625,59.328125 C69.8177173,58.921873 71.7708228,58.2291716 73.875,57.25 L73.875,66.03125 C71.9583238,67.0104216 69.9791769,67.6874981 67.9375,68.0625 C65.8958231,68.4375019 63.4583475,68.625 60.625,68.625 Z M59.90625,40.28125 C58.4687428,40.28125 57.2656298,40.7343705 56.296875,41.640625 C55.3281202,42.5468795 54.7604175,43.9687403 54.59375,45.90625 L65.09375,45.90625 C65.0520831,44.1979081 64.567713,42.8333384 63.640625,41.8125 C62.713537,40.7916616 61.4687578,40.28125 59.90625,40.28125 Z M104.46875,31.96875 C105.531255,31.96875 106.541662,32.0520825 107.5,32.21875 L108.1875,32.34375 L107.09375,43.875 C106.093745,43.6249988 104.708342,43.5 102.9375,43.5 C100.27082,43.5 98.3333394,44.1093689 97.125,45.328125 C95.9166606,46.5468811 95.3125,48.3020719 95.3125,50.59375 L95.3125,68 L83.09375,68 L83.09375,32.59375 L92.1875,32.59375 L94.09375,38.25 L94.6875,38.25 C95.7083384,36.3749906 97.1301992,34.8593808 98.953125,33.703125 C100.776051,32.5468692 102.614574,31.96875 104.46875,31.96875 Z M134.375,68.625 C132.583324,68.625 130.979174,68.328128 129.5625,67.734375 C128.145826,67.140622 126.73959,66.0729244 125.34375,64.53125 L124.78125,64.53125 C125.156252,67.0104291 125.34375,68.5520803 125.34375,69.15625 L125.34375,83.375 L113.125,83.375 L113.125,32.59375 L123.0625,32.59375 L124.78125,37.09375 L125.34375,37.09375 C127.614595,33.6770662 130.74998,31.96875 134.75,31.96875 C138.666686,31.96875 141.739572,33.5937337 143.96875,36.84375 C146.197928,40.0937663 147.3125,44.552055 147.3125,50.21875 C147.3125,55.9271119 146.151053,60.4218586 143.828125,63.703125 C141.505197,66.9843914 138.354187,68.625 134.375,68.625 Z M130.28125,41.5625 C128.489574,41.5625 127.234379,42.2031186 126.515625,43.484375 C125.796871,44.7656314 125.40625,46.6666541 125.34375,49.1875 L125.34375,50.15625 C125.34375,53.1979319 125.749996,55.3958266 126.5625,56.75 C127.375004,58.1041734 128.656241,58.78125 130.40625,58.78125 C131.968758,58.78125 133.104163,58.1093817 133.8125,56.765625 C134.520837,55.4218683 134.875,53.1979322 134.875,50.09375 C134.875,47.0520681 134.520837,44.8697983 133.8125,43.546875 C133.104163,42.2239517 131.927092,41.5625 130.28125,41.5625 Z" id="path-3"></path>
        <filter x="-4.1%" y="-8.2%" width="109.5%" height="122.9%" filterUnits="objectBoundingBox" id="filter-4">
            <feOffset dx="1" dy="2" in="SourceAlpha" result="shadowOffsetOuter1"></feOffset>
            <feGaussianBlur stdDeviation="2" in="shadowOffsetOuter1" result="shadowBlurOuter1"></feGaussianBlur>
            <feColorMatrix values="0 0 0 0 0   0 0 0 0 0   0 0 0 0 0  0 0 0 0.352355072 0" type="matrix" in="shadowBlurOuter1"></feColorMatrix>
        </filter>
    </defs>
    <g id="Account" stroke="none" stroke-width="1" fill="none" fill-rule="evenodd">
        <g id="Sign-in" transform="translate(-83.000000, -96.000000)">
            <g id="Yerp" transform="translate(85.000000, 76.000000)">
                <g>
                    <use fill="black" fill-opacity="1" filter="url(#filter-4)" xlink:href="#path-3"></use>
                    <use fill="url(#linearGradient-1)" fill-rule="evenodd" xlink:href="#path-3"></use>
                    <use fill="url(#radialGradient-2)" fill-rule="evenodd" xlink:href="#path-3"></use>
                </g>
            </g>
        </g>
    </g>
</svg>